<svg width="32.000000" height="32.000000" viewBox="0 0 32 32" fill="none" xmlns="http://www.w3.org/2000/svg" xmlns:xlink="http://www.w3.org/1999/xlink">
	<desc>
			Created with Pixso.
	</desc>
	<defs>
		<filter id="filter_256_182_dd" x="0.000000" y="0.000000" width="32.000000" height="32.000000" filterUnits="userSpaceOnUse" color-interpolation-filters="sRGB">
			<feFlood flood-opacity="0" result="BackgroundImageFix"/>
			<feColorMatrix in="SourceAlpha" type="matrix" values="0 0 0 0 0 0 0 0 0 0 0 0 0 0 0 0 0 0 127 0" result="hardAlpha"/>
			<feOffset dx="0" dy="4"/>
			<feGaussianBlur stdDeviation="1.33333"/>
			<feComposite in2="hardAlpha" operator="out" k2="-1" k3="1"/>
			<feColorMatrix type="matrix" values="0 0 0 0 0 0 0 0 0 0 0 0 0 0 0 0 0 0 0.25 0"/>
			<feBlend mode="normal" in2="BackgroundImageFix" result="effect_dropShadow_1"/>
			<feBlend mode="normal" in="SourceGraphic" in2="effect_dropShadow_1" result="shape"/>
		</filter>
		<clipPath id="clip256_183">
			<rect id="shopping-bag-line 1" rx="0.000000" width="23.000000" height="23.000000" transform="translate(4.500000 0.500000)" fill="white" fill-opacity="0"/>
		</clipPath>
	</defs>
	<g filter="url(#filter_256_182_dd)">
		<rect id="shopping-bag-line 1" rx="0.000000" width="23.000000" height="23.000000" transform="translate(4.500000 0.500000)" fill="#FFFFFF" fill-opacity="0"/>
		<g clip-path="url(#clip256_183)">
			<path id="Vector" d="M11 8L11 6C11 4.67 11.06 2.93 12 2C12.93 1.06 14.67 1 16 1C17.32 1 19.06 1.06 20 2C20.93 2.93 21 4.67 21 6L21 8L24 8C24.26 8 24.81 7.81 25 8C25.18 8.18 25 8.73 25 9L25 21C25 21.26 25.18 21.81 25 22C24.81 22.18 24.26 22 24 22L8 22C7.73 22 7.18 22.18 7 22C6.81 21.81 7 21.26 7 21L7 9C7 8.73 6.81 8.18 7 8C7.18 7.81 7.73 8 8 8L11 8ZM11 10L9 10L9 20L23 20L23 10L21 10L21 12L19 12L19 10L13 10L13 12L11 12L11 10ZM13 8L19 8L19 6C19 5.2 18.56 4.56 18 4C17.43 3.43 16.79 3 16 3C15.2 3 14.56 3.43 14 4C13.43 4.56 13 5.2 13 6L13 8Z" fill="#C4C4C4" fill-opacity="1.000000" fill-rule="nonzero"/>
		</g>
	</g>
</svg>
